<svg id="Objects" xmlns="http://www.w3.org/2000/svg" viewBox="0 0 231.44 104.11"><defs><style>.cls-1,.cls-18,.cls-28{opacity:0.2;}.cls-2{fill:#151515;}.cls-3{fill:#262626;}.cls-4{fill:#1f1f1f;}.cls-26,.cls-28,.cls-5{fill:#fff;}.cls-5{opacity:0.1;}.cls-6{fill:#111;}.cls-7{fill:#040404;}.cls-8{fill:#0d0d0d;}.cls-9{fill:#e3e3e3;}.cls-10{fill:#ededed;}.cls-11{fill:#50b4ae;}.cls-12{fill:#3b3b3a;}.cls-13{fill:#d1d1d1;}.cls-14{fill:#222221;}.cls-15{fill:#888;}.cls-16,.cls-22,.cls-24{fill:#33aeff;}.cls-17{fill:#b5292a;}.cls-19{fill:#292929;}.cls-20{fill:#424242;}.cls-21{fill:#cf5b27;}.cls-22{font-size:8.94px;}.cls-22,.cls-24{font-family:Aller-Bold, Aller Bold;font-weight:700;}.cls-23{letter-spacing:0em;}.cls-24{font-size:8.34px;}.cls-25{letter-spacing:0em;}.cls-27{fill:#e9662c;}.cls-29{fill:#e2413e;}.cls-30{fill:#881f20;}</style></defs><path class="cls-1" d="M301.67,161.68H77.78a3.21,3.21,0,0,1-3.21-3.21h0a3.21,3.21,0,0,1,3.21-3.21H301.67a3.21,3.21,0,0,1,3.21,3.21h0A3.21,3.21,0,0,1,301.67,161.68Z" transform="translate(-73.44 -57.57)"/><path class="cls-2" d="M109.55,88.79a.72.72,0,0,1-.42-.13L96.5,80a.75.75,0,0,1,.42-1.36H114.6a.75.75,0,1,1,0,1.49H99.33L110,87.43a.74.74,0,0,1,.19,1A.72.72,0,0,1,109.55,88.79Z" transform="translate(-73.44 -57.57)"/><path class="cls-3" d="M18.76,21.13H22.4a0,0,0,0,1,0,0V34.66a0,0,0,0,1,0,0H18.76a1.25,1.25,0,0,1-1.25-1.25v-11A1.25,1.25,0,0,1,18.76,21.13Z"/><path class="cls-4" d="M22.4,21.13h2.75a0,0,0,0,1,0,0V34.28a.39.39,0,0,1-.39.39H22.4a1.35,1.35,0,0,1-1.35-1.35V22.48a1.35,1.35,0,0,1,1.35-1.35Z"/><path class="cls-5" d="M95.13,90.68V79.94a.52.52,0,0,1,.52-.52h0a.52.52,0,0,1,.52.52V90.68a.52.52,0,0,1-.52.52h0A.52.52,0,0,1,95.13,90.68Z" transform="translate(-73.44 -57.57)"/><path class="cls-6" d="M107.93,123.77H99.86a17.35,17.35,0,1,0,0,34.7h8.07a17.35,17.35,0,0,0,0-34.7Z" transform="translate(-73.44 -57.57)"/><path class="cls-6" d="M218.38,123.77h-16.5a17.35,17.35,0,1,0,0,34.7h16.5a17.35,17.35,0,1,0,0-34.7Z" transform="translate(-73.44 -57.57)"/><path class="cls-7" d="M247.28,141.12a17.3,17.3,0,0,0-6.69-13.68l-2.6-3.67h-8.07a17.35,17.35,0,1,0,0,34.7H238l2.6-3.67A17.3,17.3,0,0,0,247.28,141.12Z" transform="translate(-73.44 -57.57)"/><path class="cls-8" d="M255.72,141.12A17.3,17.3,0,0,0,249,127.44l-2.6-3.67h-8.07a17.35,17.35,0,0,0,0,34.7h8.07l2.6-3.67A17.3,17.3,0,0,0,255.72,141.12Z" transform="translate(-73.44 -57.57)"/><path class="cls-8" d="M141.21,141.12a17.3,17.3,0,0,0-6.69-13.68l-2.59-3.67h-8.07a17.35,17.35,0,1,0,0,34.7h8.07l2.59-3.67A17.3,17.3,0,0,0,141.21,141.12Z" transform="translate(-73.44 -57.57)"/><path class="cls-9" d="M76.88,0H194.67a2.73,2.73,0,0,1,2.73,2.73V83.55a0,0,0,0,1,0,0H74.15a0,0,0,0,1,0,0V2.73A2.73,2.73,0,0,1,76.88,0Z"/><path class="cls-9" d="M77.2,131.91v-20.5a4.94,4.94,0,0,1,3.35-4.67l19.07-6.47,12.71-21.58a5.57,5.57,0,0,1,4.8-2.75H147.6v65.18H103V132Z" transform="translate(-73.44 -57.57)"/><path class="cls-10" d="M99.62,100.27l-15.35,6.27A5.24,5.24,0,0,0,81,111.38v0H99.3a5.21,5.21,0,0,1,3.89-5l23.15-6.1Z" transform="translate(-73.44 -57.57)"/><path class="cls-11" d="M136.62,78H116.27a2.7,2.7,0,0,0-2.33,1.33L102.35,99.12a.86.86,0,0,0,.75,1.29h20a2.67,2.67,0,0,0,2.3-1.3l12-19.85A.85.85,0,0,0,136.62,78Z" transform="translate(-73.44 -57.57)"/><path class="cls-5" d="M128,94.79l9.37-15.53a.85.85,0,0,0-.73-1.3h-1.16L113,100.41h9.35Z" transform="translate(-73.44 -57.57)"/><path class="cls-5" d="M117,78l-5.53,5.52-9.14,15.64a.86.86,0,0,0,.75,1.29H109L131.45,78Z" transform="translate(-73.44 -57.57)"/><path class="cls-12" d="M77.21,128.7,75,130.08a3.28,3.28,0,0,0-1.51,2.8V141h0a2.27,2.27,0,0,0,2.18,2.31h30.28V128.7Z" transform="translate(-73.44 -57.57)"/><path class="cls-13" d="M107.64,0H225.42a2.73,2.73,0,0,1,2.73,2.73V83.55a0,0,0,0,1,0,0H104.91a0,0,0,0,1,0,0V2.73A2.73,2.73,0,0,1,107.64,0Z"/><rect class="cls-2" x="74.15" y="83.55" width="157.29" height="4.3"/><path class="cls-13" d="M103.91,131.91v-20.5a4.94,4.94,0,0,1,3.35-4.67l19.08-6.47L139,78.69a5.58,5.58,0,0,1,4.8-2.75h30.47v65.18H129.72V132Z" transform="translate(-73.44 -57.57)"/><path class="cls-14" d="M103.91,128.7l-2,1.38a3.39,3.39,0,0,0-1.35,2.8V141h0a2.19,2.19,0,0,0,2,2.31h27.22V128.7Z" transform="translate(-73.44 -57.57)"/><circle class="cls-6" cx="58.48" cy="83.55" r="17.35"/><circle class="cls-13" cx="58.48" cy="83.55" r="10.5"/><circle class="cls-15" cx="58.48" cy="83.55" r="8.07"/><path class="cls-1" d="M131.93,133.05l-.54,0a8.06,8.06,0,0,1,0,16.08l.54,0a8.07,8.07,0,0,0,0-16.14Z" transform="translate(-73.44 -57.57)"/><circle class="cls-1" cx="57.65" cy="83.55" r="4.3"/><circle class="cls-13" cx="58.48" cy="83.55" r="4.3"/><circle class="cls-6" cx="172.99" cy="83.55" r="17.35"/><circle class="cls-13" cx="172.99" cy="83.55" r="10.5"/><circle class="cls-15" cx="172.99" cy="83.55" r="8.07"/><path class="cls-1" d="M246.43,133.05a8.42,8.42,0,0,0-1.52.15,8.06,8.06,0,0,1,0,15.84,8.42,8.42,0,0,0,1.52.15,8.07,8.07,0,0,0,0-16.14Z" transform="translate(-73.44 -57.57)"/><path class="cls-1" d="M246.43,136.82h-6.82a8,8,0,0,0,0,8.59h6.82Z" transform="translate(-73.44 -57.57)"/><path class="cls-13" d="M250.73,141.12a4.3,4.3,0,1,1-4.3-4.3A4.3,4.3,0,0,1,250.73,141.12Z" transform="translate(-73.44 -57.57)"/><path class="cls-16" d="M107.26,106.74a4.94,4.94,0,0,0-3.35,4.67v6.34H301.6V101.69H122.16Z" transform="translate(-73.44 -57.57)"/><path class="cls-17" d="M107.26,106.74a4.94,4.94,0,0,0-3.35,4.67v4.75H301.6V103.27H117.47Z" transform="translate(-73.44 -57.57)"/><path class="cls-11" d="M142.78,80.2,136,92.63a1.52,1.52,0,0,0-.18.73v5.55a1.5,1.5,0,0,0,1.5,1.5H168a1.51,1.51,0,0,0,1.51-1.5v-18a1.51,1.51,0,0,0-1.51-1.5H144.1A1.5,1.5,0,0,0,142.78,80.2Z" transform="translate(-73.44 -57.57)"/><g class="cls-18"><path d="M169,137.26H150.16l0-.38a17.88,17.88,0,0,0-17.69-15.57h-.93v-27l9.15-15.51a2.64,2.64,0,0,1,2.26-1.29h26.31a2.62,2.62,0,0,1,2.62,2.63v54.26A2.85,2.85,0,0,1,169,137.26Zm-18.07-.87H169a2,2,0,0,0,2-2V80.15a1.75,1.75,0,0,0-1.75-1.75H142.9a1.75,1.75,0,0,0-1.51.86l-9,15.29v25.89h0A18.74,18.74,0,0,1,150.92,136.39Z" transform="translate(-73.44 -57.57)"/></g><g class="cls-18"><path d="M209.27,137.26H185.06V67.75h24.21Zm-23.33-.87h22.45V68.63H185.94Z" transform="translate(-73.44 -57.57)"/></g><g class="cls-18"><path d="M295.46,137.26H269.75V111.55h25.71Zm-24.84-.87h24v-24h-24Z" transform="translate(-73.44 -57.57)"/></g><g class="cls-18"><path d="M227.89,137.26h-15.2V111.55h15.2Zm-14.33-.87H227v-24H213.56Z" transform="translate(-73.44 -57.57)"/></g><path class="cls-2" d="M137.1,88.79a.72.72,0,0,1-.42-.13L124.05,80a.75.75,0,0,1,.42-1.36h17.68a.75.75,0,1,1,0,1.49H126.88l10.64,7.27a.74.74,0,0,1,.19,1A.72.72,0,0,1,137.1,88.79Z" transform="translate(-73.44 -57.57)"/><path class="cls-3" d="M46.31,21.13H50a0,0,0,0,1,0,0V34.66a0,0,0,0,1,0,0H46.31a1.25,1.25,0,0,1-1.25-1.25v-11A1.25,1.25,0,0,1,46.31,21.13Z"/><path class="cls-4" d="M50,21.13H52.7a0,0,0,0,1,0,0V34.28a.39.39,0,0,1-.39.39H50a1.35,1.35,0,0,1-1.35-1.35V22.48A1.35,1.35,0,0,1,50,21.13Z"/><rect class="cls-19" x="128.95" y="39.68" width="4.59" height="6.33"/><rect class="cls-20" x="130.88" y="40.13" width="2.3" height="5.43"/><rect class="cls-19" x="91.51" y="47.8" width="4.59" height="6.33"/><rect class="cls-20" x="93.44" y="48.24" width="2.3" height="5.43"/><rect class="cls-19" x="148.03" y="63.94" width="4.59" height="6.33"/><rect class="cls-20" x="149.96" y="64.39" width="2.3" height="5.43"/><rect class="cls-19" x="214.84" y="63.94" width="4.59" height="6.33"/><rect class="cls-20" x="216.77" y="64.39" width="2.3" height="5.43"/><path class="cls-21" d="M103.91,121.43h0v-10h4a.75.75,0,0,1,.74.75v4.54A4.72,4.72,0,0,1,103.91,121.43Z" transform="translate(-73.44 -57.57)"/><path class="cls-17" d="M142.42,75.32l-5.7-2a2.14,2.14,0,0,0-2.86,2h8.56Z" transform="translate(-73.44 -57.57)"/><rect class="cls-19" x="59.87" y="17.74" width="9.7" height="0.63"/><path class="cls-17" d="M130.09,75.32l-5.7-2a2.14,2.14,0,0,0-2.86,2h8.56Z" transform="translate(-73.44 -57.57)"/><rect class="cls-19" x="47.54" y="17.74" width="9.7" height="0.63"/><rect class="cls-19" x="140.45" y="10.62" width="9.68" height="9.68"/><rect class="cls-17" x="141.59" y="11.76" width="7.38" height="7.38"/><rect class="cls-19" x="152.64" y="10.62" width="9.68" height="9.68"/><rect class="cls-13" x="153.79" y="11.76" width="7.38" height="7.38"/><rect class="cls-19" x="282.38" y="68.19" width="9.68" height="9.68" transform="translate(500.99 88.48) rotate(180)"/><rect class="cls-17" x="283.52" y="69.34" width="7.38" height="7.38" transform="translate(500.99 88.48) rotate(180)"/><rect class="cls-19" x="270.18" y="68.19" width="9.68" height="9.68" transform="translate(476.6 88.48) rotate(180)"/><rect class="cls-13" x="271.33" y="69.34" width="7.38" height="7.38" transform="translate(476.6 88.48) rotate(180)"/><rect class="cls-19" x="37.71" y="53.84" width="7.26" height="3.64"/><rect class="cls-17" x="38.15" y="54.26" width="6.39" height="2.81"/><rect class="cls-19" x="168.95" y="53.84" width="7.26" height="3.64"/><rect class="cls-17" x="169.39" y="54.26" width="6.39" height="2.81"/><polygon class="cls-16" points="219.89 30.24 217.75 26.43 215.37 27.76 215.37 25.03 210.99 25.03 210.99 27.76 208.61 26.43 206.47 30.24 208.71 31.5 206.47 32.76 208.61 36.58 210.99 35.24 210.99 37.97 215.37 37.97 215.37 35.24 217.75 36.58 219.89 32.76 217.65 31.5 219.89 30.24"/><text class="cls-22" transform="translate(148.03 34.66)"><tspan class="cls-23">A</tspan><tspan x="5.43" y="0">MBULANCE</tspan></text><text class="cls-24" transform="matrix(0.47, -0.01, -0.89, 0.46, 6.38, 51.21)"><tspan class="cls-25">A</tspan><tspan x="5.07" y="0">MBULANCE</tspan></text><path class="cls-5" d="M168,79.42H149.6L135.78,93.23s0,.08,0,.13v5.55a1.5,1.5,0,0,0,1.5,1.5h9.95l21-21Z" transform="translate(-73.44 -57.57)"/><polygon class="cls-5" points="96.1 37.75 96.1 25.68 78.94 42.84 91.01 42.84 96.1 37.75"/><path class="cls-5" d="M114.7,132.71h-11a1,1,0,0,1-1-1h0a1,1,0,0,1,1-1h11a1,1,0,0,1,1,1h0A1,1,0,0,1,114.7,132.71Z" transform="translate(-73.44 -57.57)"/><path class="cls-5" d="M98.26,132.71h-22a1,1,0,0,1-1-1h0a1,1,0,0,1,1-1h22a1,1,0,0,1,1,1h0A1,1,0,0,1,98.26,132.71Z" transform="translate(-73.44 -57.57)"/><path class="cls-5" d="M122.68,90.68V79.94a.52.52,0,0,1,.52-.52h0a.52.52,0,0,1,.52.52V90.68a.52.52,0,0,1-.52.52h0A.52.52,0,0,1,122.68,90.68Z" transform="translate(-73.44 -57.57)"/><path class="cls-5" d="M117.13,113.11h-4.82a.47.47,0,0,1-.47-.48h0a.47.47,0,0,1,.47-.47h4.82a.48.48,0,0,1,.48.47h0A.48.48,0,0,1,117.13,113.11Z" transform="translate(-73.44 -57.57)"/><path class="cls-5" d="M248.44,113.11h-4.82a.48.48,0,0,1-.48-.48h0a.48.48,0,0,1,.48-.47h4.82a.47.47,0,0,1,.47.47h0A.47.47,0,0,1,248.44,113.11Z" transform="translate(-73.44 -57.57)"/><path class="cls-5" d="M221.14,70.77h-4.82a.48.48,0,0,1-.47-.48h0a.48.48,0,0,1,.47-.48h4.82a.49.49,0,0,1,.48.48h0A.49.49,0,0,1,221.14,70.77Z" transform="translate(-73.44 -57.57)"/><path class="cls-5" d="M233.33,70.77h-4.81a.48.48,0,0,1-.48-.48h0a.48.48,0,0,1,.48-.48h4.81a.48.48,0,0,1,.48.48h0A.48.48,0,0,1,233.33,70.77Z" transform="translate(-73.44 -57.57)"/><path class="cls-5" d="M277.44,70.77h-4.81a.48.48,0,0,1-.48-.48h0a.48.48,0,0,1,.48-.48h4.81a.48.48,0,0,1,.48.48h0A.48.48,0,0,1,277.44,70.77Z" transform="translate(-73.44 -57.57)"/><path class="cls-5" d="M289.64,70.77h-4.82a.49.49,0,0,1-.48-.48h0a.49.49,0,0,1,.48-.48h4.82a.48.48,0,0,1,.47.48h0A.48.48,0,0,1,289.64,70.77Z" transform="translate(-73.44 -57.57)"/><polygon class="cls-26" points="24.18 63.86 30.47 63.86 30.47 53.84 25.86 53.84 24.18 63.86"/><polygon class="cls-26" points="9.26 63.86 3.75 63.86 3.75 53.84 7.58 53.84 9.26 63.86"/><path class="cls-19" d="M81,111.41H99.3l-2.13,12.34a.93.93,0,0,1-.92.78H84a.94.94,0,0,1-.92-.78Z" transform="translate(-73.44 -57.57)"/><rect class="cls-27" x="3.75" y="53.84" width="1.5" height="10.02"/><rect class="cls-27" x="28.71" y="53.84" width="1.76" height="10.02"/><polygon class="cls-4" points="8.3 54.56 24.87 54.56 22.91 66.1 10.41 66.1 8.3 54.56"/><rect class="cls-19" x="10.41" y="54.41" width="0.8" height="11.85"/><rect class="cls-19" x="13.34" y="54.41" width="0.8" height="11.85"/><rect class="cls-19" x="16.27" y="54.41" width="0.8" height="11.85"/><rect class="cls-19" x="89.72" y="107.26" width="0.8" height="16.38" transform="translate(132.13 -32.24) rotate(90)"/><rect class="cls-19" x="89.72" y="112.52" width="0.8" height="15.02" transform="translate(136.7 -27.66) rotate(90)"/><rect class="cls-19" x="19.21" y="54.41" width="0.8" height="11.85"/><rect class="cls-19" x="22.14" y="54.41" width="0.8" height="11.85"/><rect class="cls-19" x="9.71" y="57.48" width="3.56" height="3.64"/><rect class="cls-17" x="9.92" y="57.9" width="3.14" height="2.81"/><rect class="cls-5" x="10.04" y="58.22" width="2.83" height="0.95" rx="0.33"/><rect class="cls-19" x="20.01" y="57.48" width="3.56" height="3.64"/><rect class="cls-17" x="20.22" y="57.9" width="3.14" height="2.81"/><rect class="cls-5" x="20.34" y="58.22" width="2.83" height="0.95" rx="0.33"/><rect class="cls-4" x="139.56" y="10.62" width="0.89" height="9.68"/><rect class="cls-4" x="151.75" y="10.62" width="0.89" height="9.68"/><rect class="cls-4" x="195.85" y="10.62" width="0.89" height="9.68"/><rect class="cls-4" x="208.04" y="10.62" width="0.89" height="9.68"/><path class="cls-5" d="M297.32,62.69H182.63a1.6,1.6,0,0,1-1.6-1.6h0a1.6,1.6,0,0,1,1.6-1.6H297.32a1.6,1.6,0,0,1,1.6,1.6h0A1.59,1.59,0,0,1,297.32,62.69Z" transform="translate(-73.44 -57.57)"/><path class="cls-5" d="M225.34,115.74h-9.82a1.1,1.1,0,0,1-1.1-1.1h0a1.1,1.1,0,0,1,1.1-1.1h9.82a1.1,1.1,0,0,1,1.1,1.1h0A1.1,1.1,0,0,1,225.34,115.74Z" transform="translate(-73.44 -57.57)"/><path class="cls-5" d="M292.24,115.74H273a1.1,1.1,0,0,1-1.1-1.1h0a1.1,1.1,0,0,1,1.1-1.1h19.23a1.1,1.1,0,0,1,1.1,1.1h0A1.1,1.1,0,0,1,292.24,115.74Z" transform="translate(-73.44 -57.57)"/><path class="cls-5" d="M205.89,71.87h-18a1.1,1.1,0,0,1-1.1-1.1h0a1.1,1.1,0,0,1,1.1-1.1h18a1.1,1.1,0,0,1,1.1,1.1h0A1.1,1.1,0,0,1,205.89,71.87Z" transform="translate(-73.44 -57.57)"/><rect class="cls-9" x="5.86" y="77.52" width="13.75" height="5.49"/><path class="cls-28" d="M181.09,57.57H150.33a2.73,2.73,0,0,0-2.73,2.73V75.94h26.71v65.18h4.05V60.3A2.73,2.73,0,0,1,181.09,57.57Z" transform="translate(-73.44 -57.57)"/><rect class="cls-4" x="100.79" y="6.72" width="0.98" height="8.45"/><rect class="cls-19" x="76.13" y="6.72" width="24.66" height="8.45"/><path class="cls-29" d="M74.33,7.46H96.51a0,0,0,0,1,0,0v7a0,0,0,0,1,0,0H74.33a1,1,0,0,1-1-1v-5A1,1,0,0,1,74.33,7.46Z"/><rect class="cls-17" x="77.79" y="7.46" width="4.45" height="6.98"/><rect class="cls-17" x="86.69" y="7.46" width="4.45" height="6.98"/><rect class="cls-26" x="82.24" y="7.46" width="4.45" height="6.98"/><path class="cls-5" d="M167.5,66.58H147.77a.47.47,0,0,1-.48-.47h0a.47.47,0,0,1,.48-.48H167.5a.47.47,0,0,1,.48.48h0A.47.47,0,0,1,167.5,66.58Z" transform="translate(-73.44 -57.57)"/><path class="cls-30" d="M96.44,7.46h3.71a0,0,0,0,1,0,0v7a0,0,0,0,1,0,0H96.44a.86.86,0,0,1-.86-.86V8.31A.86.86,0,0,1,96.44,7.46Z"/><path class="cls-5" d="M172.74,66.58H170a.47.47,0,0,1-.48-.47h0a.47.47,0,0,1,.48-.48h2.72a.47.47,0,0,1,.47.48h0A.47.47,0,0,1,172.74,66.58Z" transform="translate(-73.44 -57.57)"/><path class="cls-5" d="M174.73,62.69H150.2a1.6,1.6,0,0,1-1.6-1.6h0a1.6,1.6,0,0,1,1.6-1.6h24.53a1.6,1.6,0,0,1,1.6,1.6h0A1.59,1.59,0,0,1,174.73,62.69Z" transform="translate(-73.44 -57.57)"/><path class="cls-17" d="M154.25,75.32l-5.7-2a2.14,2.14,0,0,0-2.86,2h8.56Z" transform="translate(-73.44 -57.57)"/><rect class="cls-19" x="71.69" y="17.74" width="9.7" height="0.63"/></svg>