<svg id="Layer_1" data-name="Layer 1" xmlns="http://www.w3.org/2000/svg" viewBox="0 0 476.51 135.99"><defs><style>.cls-1{fill:#b92025;}.cls-2,.cls-6{fill:#fff;}.cls-3{font-size:55.93px;}.cls-3,.cls-5{fill:#231f20;}.cls-3,.cls-6{font-family:Poppins-Regular, Poppins;}.cls-4{font-family:Poppins-SemiBold, Poppins;font-weight:600;letter-spacing:0em;}.cls-6{font-size:18.69px;}</style></defs><ellipse class="cls-1" cx="68.92" cy="67.86" rx="64.58" ry="64.16"/><path d="M207.53,358c.42-13.44-2.72-26-10.23-37.18-10.87-16.26-26.15-25.73-45.55-27.95A62.63,62.63,0,0,0,83.36,342.4c-7,33.14,13.75,66.5,47.41,73.91,23.47,5.17,43.68-1.44,60.38-18.72.29-.31.56-.64.86-.94,1.31-1.34,2.79-1.54,3.83-.54a2.56,2.56,0,0,1,0,4,106.17,106.17,0,0,1-8.26,7.91,67.09,67.09,0,0,1-45.9,15.13c-31.31-1.1-58.62-25.12-63.8-56-5.49-32.75,12.06-63.55,43-75.49,37.85-14.6,81.22,8.58,90.1,48.12a70.37,70.37,0,0,1,1.41,23.1c-.24,2.2-1.39,3.29-3.23,3.05-1.45-.18-2.13-1.44-1.95-3.52C207.37,360.92,207.44,359.46,207.53,358Z" transform="translate(-76.89 -287.21)"/><path d="M136.36,346.78v-2.17q0-10.91,0-21.8c0-5,3.6-8.75,8.44-8.76a8.38,8.38,0,0,1,8.48,8.72q0,10.91,0,21.81v2.2h23.94c5.06,0,8.79,3.57,8.81,8.39s-3.7,8.52-8.86,8.53H153.38c0,.79-.09,1.43-.09,2.07,0,7.27,0,14.54,0,21.81,0,5.15-3.61,8.87-8.54,8.85s-8.37-3.77-8.38-8.82q0-10.82,0-21.62V363.7h-24a8.38,8.38,0,0,1-8.71-8.49c0-4.84,3.72-8.42,8.78-8.43h24Zm27.9,11.77c4.25,0,8.49,0,12.73,0a4.64,4.64,0,0,0,2.1-.4,3.12,3.12,0,0,0,1.71-3.65,3.34,3.34,0,0,0-3.52-2.54q-12.72,0-25.46,0c-2.89,0-3.68-.78-3.69-3.63,0-8.36,0-16.72,0-25.08a5.55,5.55,0,0,0-1-3,2.77,2.77,0,0,0-3.45-.83,3.34,3.34,0,0,0-2.18,3.43q0,12.63,0,25.26c0,3.11-.73,3.83-3.86,3.83H112.56c-2.14,0-3.56,1.12-3.78,2.89-.25,2.11,1.29,3.72,3.67,3.72q12.72,0,25.46,0c2.77,0,3.59.81,3.6,3.54q0,12.54,0,25.08a5.4,5.4,0,0,0,.39,2.28,3.11,3.11,0,0,0,3.62,1.77,3.33,3.33,0,0,0,2.59-3.49c0-8.6,0-17.2,0-25.81,0-2.5.87-3.36,3.39-3.37Z" transform="translate(-76.89 -287.21)"/><path d="M204.87,384.58c-2.11,0-3.38-1.51-2.86-3.16a14.19,14.19,0,0,1,1.79-4.14,3.17,3.17,0,0,1,2.66-1.19c.85.28,2,1.68,1.9,2.39a20.92,20.92,0,0,1-2.08,5.32C206,384.27,205.18,384.42,204.87,384.58Z" transform="translate(-76.89 -287.21)"/><path class="cls-2" d="M164.26,358.55H151.53c-2.52,0-3.39.87-3.39,3.37,0,8.61,0,17.21,0,25.81a3.33,3.33,0,0,1-2.59,3.49,3.11,3.11,0,0,1-3.62-1.77,5.4,5.4,0,0,1-.39-2.28q0-12.54,0-25.08c0-2.73-.83-3.54-3.6-3.54q-12.74,0-25.46,0c-2.38,0-3.92-1.61-3.67-3.72.22-1.77,1.64-2.88,3.78-2.89h25.09c3.13,0,3.86-.72,3.86-3.83q0-12.63,0-25.26a3.34,3.34,0,0,1,2.18-3.43,2.77,2.77,0,0,1,3.45.83,5.55,5.55,0,0,1,1,3c.07,8.36,0,16.72,0,25.08,0,2.85.8,3.63,3.69,3.63q12.74,0,25.46,0a3.34,3.34,0,0,1,3.52,2.54,3.12,3.12,0,0,1-1.71,3.65,4.64,4.64,0,0,1-2.1.4C172.75,358.57,168.51,358.55,164.26,358.55Z" transform="translate(-76.89 -287.21)"/><text class="cls-3" transform="translate(148.22 70.3)">Ambu<tspan class="cls-4" x="168.9" y="0">Track</tspan></text><rect class="cls-5" x="150.71" y="81.71" width="325.8" height="29.7"/><text class="cls-6" transform="translate(179.09 102.56)">Response Emergency Service</text></svg>