<svg id="Layer_1" data-name="Layer 1" xmlns="http://www.w3.org/2000/svg" viewBox="0 0 279.79 279.95"><defs><style>.cls-1{fill:#b92025;}.cls-2{fill:#fff;}</style></defs><ellipse class="cls-1" cx="141.87" cy="139.7" rx="132.95" ry="132.07"/><path d="M479.42,377c.86-27.67-5.6-53.44-21.06-76.54-22.39-33.46-53.85-53-93.77-57.54-66-7.57-127,36.39-140.78,101.94C209.48,413.05,252.11,481.72,321.4,497c48.3,10.64,89.91-3,124.29-38.54.61-.63,1.16-1.32,1.77-1.94,2.7-2.74,5.74-3.16,7.9-1.11,2.54,2.44,2.75,5.45,0,8.24-5.52,5.58-10.91,11.37-17,16.28-27.53,22.22-59.18,32.4-94.48,31.16-64.45-2.27-120.68-51.72-131.34-115.39-11.3-67.42,24.83-130.82,88.56-155.4,77.91-30.05,167.2,17.66,185.48,99a144.63,144.63,0,0,1,2.89,47.56c-.48,4.52-2.85,6.77-6.65,6.28-3-.38-4.37-3-4-7.24C479.08,383,479.22,380,479.42,377Z" transform="translate(-210.48 -231.22)"/><path d="M332.9,353.85v-4.46q0-22.44,0-44.89c0-10.38,7.4-18,17.37-18s17.44,7.6,17.46,17.94q0,22.45,0,44.9v4.53h4.36q22.45,0,44.91,0c10.42,0,18.1,7.35,18.14,17.27,0,10.15-7.61,17.53-18.23,17.55q-22.28,0-44.54,0H368c-.08,1.62-.2,2.94-.2,4.26q0,22.46,0,44.89c0,10.61-7.43,18.27-17.57,18.23-9.9-.05-17.25-7.76-17.26-18.16q0-22.25,0-44.51v-4.71h-4.56q-22.45,0-44.91,0c-10.34,0-17.95-7.47-17.93-17.47s7.65-17.33,18.05-17.34q22.45,0,44.92,0Zm57.44,24.23c8.74,0,17.47,0,26.21,0a10,10,0,0,0,4.32-.83,6.42,6.42,0,0,0,3.52-7.51c-.64-3.18-3.49-5.24-7.24-5.24-17.47,0-34.94,0-52.41,0-6,0-7.59-1.61-7.6-7.47,0-17.21.07-34.42-.09-51.64a11.25,11.25,0,0,0-2-6.12c-1.64-2.31-4.41-2.78-7.09-1.7-3.11,1.24-4.5,3.65-4.5,7q.07,26,0,52c0,6.39-1.5,7.88-7.93,7.88q-25.85,0-51.67,0c-4.4,0-7.32,2.3-7.77,5.94-.52,4.35,2.65,7.66,7.55,7.67q26.2,0,52.41,0c5.71,0,7.41,1.66,7.41,7.27,0,17.21,0,34.42,0,51.64a11,11,0,0,0,.78,4.69,6.4,6.4,0,0,0,7.47,3.63c3.18-.59,5.32-3.45,5.33-7.16,0-17.71,0-35.43,0-53.14,0-5.16,1.79-6.92,7-6.93Q377.24,378.06,390.34,378.08Z" transform="translate(-210.48 -231.22)"/><path d="M473.93,431.66c-4.33,0-7-3.1-5.89-6.5a29.56,29.56,0,0,1,3.7-8.52c1.06-1.48,4-2.93,5.48-2.46,1.74.57,4.18,3.47,3.91,4.92-.7,3.8-2.54,7.43-4.3,10.95C476.35,431,474.57,431.33,473.93,431.66Z" transform="translate(-210.48 -231.22)"/><path class="cls-2" d="M390.34,378.08q-13.09,0-26.2,0c-5.2,0-7,1.77-7,6.93,0,17.71,0,35.43,0,53.14,0,3.71-2.15,6.57-5.33,7.16a6.4,6.4,0,0,1-7.47-3.63,11,11,0,0,1-.78-4.69c-.06-17.22,0-34.43,0-51.64,0-5.61-1.7-7.27-7.41-7.27q-26.2,0-52.41,0c-4.9,0-8.07-3.32-7.55-7.67.45-3.64,3.37-5.93,7.77-5.94q25.83,0,51.67,0c6.43,0,7.93-1.49,7.93-7.88q0-26,0-52c0-3.39,1.39-5.8,4.5-7,2.68-1.08,5.45-.61,7.09,1.7a11.25,11.25,0,0,1,2,6.12c.16,17.22.09,34.43.09,51.64,0,5.86,1.64,7.47,7.6,7.47,17.47,0,34.94,0,52.41,0,3.75,0,6.6,2.06,7.24,5.24a6.42,6.42,0,0,1-3.52,7.51,10,10,0,0,1-4.32.83C407.81,378.12,399.08,378.08,390.34,378.08Z" transform="translate(-210.48 -231.22)"/></svg>