<?xml version="1.0" standalone="no"?>
<!DOCTYPE svg PUBLIC "-//W3C//DTD SVG 20010904//EN"
 "http://www.w3.org/TR/2001/REC-SVG-20010904/DTD/svg10.dtd">
<svg version="1.0" xmlns="http://www.w3.org/2000/svg"
 width="700.000000pt" height="700.000000pt" viewBox="0 0 700.000000 700.000000"
 preserveAspectRatio="xMidYMid meet">
<metadata>
Created by potrace 1.14, written by Peter Selinger 2001-2017
</metadata>
<g transform="translate(0.000000,700.000000) scale(0.100000,-0.100000)"
fill="#000000" stroke="none">
<path d="M3278 6995 c-2 -1 -41 -5 -88 -9 -47 -4 -96 -8 -110 -10 -14 -2 -46
-7 -71 -10 -624 -86 -1268 -376 -1774 -802 -606 -509 -1022 -1217 -1169 -1989
-26 -137 -35 -194 -42 -260 -2 -22 -7 -76 -11 -120 -10 -102 -10 -496 0 -595
4 -41 10 -100 13 -130 8 -84 43 -284 69 -395 214 -903 807 -1704 1620 -2187
443 -264 935 -426 1440 -475 167 -16 621 -9 775 13 19 3 51 7 70 10 146 19
303 54 540 118 8 3 61 20 117 40 372 130 724 330 1062 601 107 85 424 406 444
448 20 41 14 80 -19 129 l-26 36 53 69 c30 37 56 70 59 73 3 3 42 59 86 125
70 105 109 170 175 290 15 27 21 30 62 27 76 -6 102 16 151 121 77 166 80 226
15 281 l-27 23 29 94 c31 97 95 351 102 403 3 25 10 31 46 42 61 18 78 37 106
119 26 79 26 713 0 840 -2 11 -7 41 -10 67 -18 152 -69 385 -127 573 -60 197
-197 512 -296 680 -10 17 -31 53 -47 80 -65 110 -225 331 -327 450 -83 97
-324 332 -428 417 -272 221 -556 395 -855 522 -60 26 -119 52 -130 57 -62 29
-404 133 -505 153 -14 3 -36 8 -50 11 -49 11 -256 44 -315 50 -33 4 -71 9 -85
11 -26 6 -516 14 -522 9z"/>
</g>
</svg>
